<svg id="Camada_1" data-name="Camada 1" xmlns="http://www.w3.org/2000/svg" width="204.76" height="345.71" viewBox="0 0 204.76 345.71">
  <title>543px-Baby_anthony_liekens_01</title>
  <path d="M1093.67,659.4c-5.42-8.2-10.87-16.37-16.48-24.44-1.61-2.33-1.9-4-.15-6.53a78.09,78.09,0,0,0,12.56-30.72c1.3-6.86,1-7.32-5.65-8.67-2.11-.43-4.22-1-6.36-1.24-3.76-.48-5.09-1.88-4.42-6.14,2.88-18.29,1.2-36.24-6-53.39a7.69,7.69,0,0,1-.79-3.56A28.54,28.54,0,0,1,1057,519c-5.44-4.35-7.62-11.06-7.19-17.89a3.75,3.75,0,0,1-1.36-.94c-3.86-3.95-8.58-6.82-13.39-9.65a6.09,6.09,0,0,1,1.82-1.6c-13.6.14-27.92,1.34-41.33-.39-4.46,2-8.95,4-12.61,7.18-1.72,1.5-3.18,2-4.79,1.73-1.43,8.24-8.81,15.75-16,23.1a3.92,3.92,0,0,1-.38,1,93.38,93.38,0,0,0-10,36.84c-.1,1.66-.76,2.55-2.54,1.91-4.36-1.57-5.45,1.08-6.19,4.57-4.07,19.28-1.92,37.82,7.08,55.33,1.87,3.64,1.26,5.4-1.54,7.84-5.64,4.93-11,10.15-16.4,15.39-5.93,5.8-6,14-.4,20.06s14.15,6.44,20.41.65c5.5-5.1,11-10.2,16.35-15.45,1.87-1.83,3.12-2,5.43-.47,24.48,16.64,50,18.41,76.4,4.79,2.89-1.49,4-.62,5.47,1.65,4.52,7,9.18,13.89,13.85,20.78,5.1,7.52,13.09,9.21,20.3,4.37S1098.67,667,1093.67,659.4Z" transform="translate(-912.06 -336.85)"/>
  <g id="bracod">
    <path d="M1115.23,484.8c-1.65-2.89-3.43-5.7-5.17-8.55-4-6.46-6.07-7-12.44-3.16q-22,13.32-44,26.65c-1.23.74-2.38,1.89-3.82,1.37-.43,6.83,1.75,13.54,7.19,17.89a28.54,28.54,0,0,0,9.37,5.71c.15-1.69,1.36-2.81,3.57-4.11,14.21-8.35,28.25-17,42.31-25.58C1117.29,492,1118,489.55,1115.23,484.8Z" transform="translate(-912.06 -336.85)"/>
    <path d="M1105,478.46c-2-3.34-3.51-3.38-6.56-1.49-15.15,9.38-30.47,18.48-45.61,27.86a10,10,0,0,1-2.88,1.31c0,5.06,4.41,13.49,9.79,15.09a7.55,7.55,0,0,1,3-2.66c12.78-7.48,25.39-15.27,38.07-22.94C1111.6,489.11,1111.44,489.21,1105,478.46Z" transform="translate(-912.06 -336.85)" style="fill: #ffe8bf"/>
  </g>
  <path d="M1004.33,489.28c-.5,1.27-1.94,1.53-3.26,1.88a44.44,44.44,0,0,0-18.46,9.57c-2.16,1.92-4,2.38-6.07,1.79-2.28,4.94-6.34,9.65-10.73,14.27,1.09,1.52.86,3.28-.6,5.9-6.07,10.93-8.74,22.93-10.05,35.29-.26,2.41.21,3.68,2.85,4.07,3.45.5,6.84,1.38,10.26,2.11q47.07,10.08,94.14,20.2c3.4.74,5,0,5.24-3.63.27-4.82,1.35-9.58,1.06-13-.09-15.25-2.46-28.63-8.38-41.17-1.09-2.3-1.32-3.92-.56-5.31A27.86,27.86,0,0,1,1057,519a19.52,19.52,0,0,1-7-12.86c-1.82.43-3.41-.14-5.27-2.12a47.49,47.49,0,0,0-16-10.82c-1.9-.82-4.79-1-4.57-3.76a1.2,1.2,0,0,1,0-.2C1017.51,489.43,1010.86,489.59,1004.33,489.28Z" transform="translate(-912.06 -336.85)" style="fill: #ffe8bf"/>
  <g id="brace">
    <path d="M930.26,470c-5.48-3.18-7.92-2.57-11.08,2.66-1.55,2.56-3,5.19-4.49,7.79-4.14,7.18-3.71,8.82,3.52,13l41.41,24.13c1.29.75,2.92,1.23,2.56,3,7.15-7.35,14.54-14.86,16-23.1a9.29,9.29,0,0,1-3-1.27C960.24,487.29,945.23,478.66,930.26,470Z" transform="translate(-912.06 -336.85)"/>
    <path d="M934.09,478.05c-10.61-6.18-10.5-6.12-16.76,4.62-1.89,3.24-1.37,4.76,1.85,6.58,14.63,8.29,29.06,16.93,43.7,25.2a8.93,8.93,0,0,1,2.93,2.35c5.26-2.69,10.72-8.68,10.72-14.27a12.27,12.27,0,0,1-2.78-1.28C960.62,493.37,947.32,485.77,934.09,478.05Z" transform="translate(-912.06 -336.85)" style="fill: #ffe8bf"/>
  </g>
  <g id="fraulda">
    <path d="M955.34,621.36c1.21-1,2.25-1.82,3.21-2.7,9.8-9,19-7.55,25.22,4.37,1,2,2.32,2,3.92,2.2,25.81,2.6,51.63,5.14,77.44,7.82a5.83,5.83,0,0,0,5.88-2.66,90.44,90.44,0,0,0,12-22.32c1.6-4.2.7-5.18-3.8-5.21-35-.22-69.89-.7-104.83-1.12-7.82-.1-15.64-.27-23.46-.47-2.21-.06-3.68.33-2.86,3C949.8,610.18,951.8,616,955.34,621.36Z" transform="translate(-912.06 -336.85)" style="fill: #fff"/>
    <path d="M1016,598.64h65.45c2,0,4.09.4,4.5-2.57.44-3.23-2-2.85-3.82-3.24q-24.39-5.28-48.78-10.54c-27.31-5.85-54.65-11.59-81.93-17.57-3.24-.71-4.37-.18-4.9,3.11a87.33,87.33,0,0,0-.86,24.85c.42,3.37,1.5,4.39,4.89,4.37" transform="translate(-912.06 -336.85)" style="fill: #fff"/>
    <path d="M1064.25,637.37c-6.69-.68-12.6-1.3-18.51-1.88q-28.32-2.79-56.66-5.52c-1.66-.15-4-1.17-4.7,1.38-1.22,4.33-4.47,7-7.66,9.6-2.81,2.29-1.85,3.39.58,5a81.06,81.06,0,0,0,14.53,7.68C1016.52,663.19,1047.86,656.43,1064.25,637.37Z" transform="translate(-912.06 -336.85)" style="fill: #fff"/>
  </g>
  <path id="pernaes" d="M969.68,617.43a10.09,10.09,0,0,0-5.89,2.65c-9.53,9-19.14,18-28.58,27.09-4.09,3.94-3.88,9.06.11,13.26s9.07,4.62,13.26.76c9.65-8.9,19.13-18,28.68-27,3.21-3,3.51-6.63,1.76-10.46C977.2,619.73,973.84,617.86,969.68,617.43Z" transform="translate(-912.06 -336.85)" style="fill: #ffe8bf"/>
  <path id="pernad" d="M1092,667.15a9,9,0,0,0-.86-2.82c-5.84-8.91-11.81-17.74-17.65-26.65-1.38-2.1-2.21-1-3.38.15-3.25,3.1-6.43,6.3-9.93,9.11-2,1.63-2.22,2.76-.77,4.86,5,7.26,9.86,14.64,14.78,22,2.57,3.83,6.16,5,10.44,3.52C1089.11,675.72,1091.89,672.67,1092,667.15Z" transform="translate(-912.06 -336.85)" style="fill: #ffe8bf"/>
  <path id="umbigo" d="M1013.41,569.09c-3.22-.45-5.34-2.24-5.37-5.51a5.4,5.4,0,0,1,10.8,0C1018.82,566.82,1016.7,568.67,1013.41,569.09Z" transform="translate(-912.06 -336.85)"/>
  <g id="cabeca">
    <path id="funpcab" d="M1036.88,488.92c1.2-.72,2.55-1.14,3.73-1.81,15-8.6,22.92-24.29,20.13-41.27A100.46,100.46,0,0,0,1041,400.53c-3.67-4.79-6.38-8.8-12.23-11.47-4-2.43-6.21-2.28-7.61-3.76-2.92-3.11-2.84-7.55-2.38-12.52,0-.49,0-1,0-1.5,0-9.1,0-9.1-8.08-4.79-6.28,3.35-10.28,1-9.8-6,.55-8.21,5.59-13.65,12.34-17.64,2.63-1.55,5.63-2.73,8.4-.46s5.16,5,3.83,9c-.77,2.29.38,3.29,2,3.67,1.84.43,2-1.5,2.28-2.63,1.2-4.84-.62-8.75-3.93-12.23s-7.19-4-11.46-2.67c-8.72,2.64-17.2,13.08-18.08,22.13-1,9.9,5.78,15,15.13,11.39.75-.28,1.52-.5,2.76-.9,0,4.34-.12,8.31,0,12.27.09,2.23-1.12,2.86-2.88,3.28-7.36,1.77-12.65,6.52-17.14,12.25-9.56,12.16-14.91,26.21-18.28,41.15-4.62,20.47.91,36.83,19.18,48.15.23.14.29.54.63,1.22l-.21.09C1009,490.26,1023.28,489.06,1036.88,488.92Z" transform="translate(-912.06 -336.85)"/>
    <path id="cabecaf" d="M1028.8,486.51c17.06-5.25,28.57-21.2,26.54-37.17a95.52,95.52,0,0,0-19.1-46A38.6,38.6,0,0,0,1023.72,392c-6.25-3.33-12.42-3.21-18.47.59a34.62,34.62,0,0,0-9,8.56c-9.07,11.9-14.43,25.48-17.15,40-4.05,21.69,2.77,34.8,22.34,44.24,1.5.72,3.36,1.2,3.05,3.34a2.65,2.65,0,0,1-.15.54,49.21,49.21,0,0,0,19.79,0C1024.45,487.05,1027,487.07,1028.8,486.51Z" transform="translate(-912.06 -336.85)" style="fill: #ffe8bf"/>
    <path id="folhos" d="M1021,408c-2.49,1.2-2.79-.5-3.81-1.55-4.41-4.54-9.72-5.26-14.25-1.78-4.29,3.3-5.63,8-6,12.18-.16,13.9,8.47,19.2,19.89,13.07a1.78,1.78,0,0,1,2.52.35c3.64,3.62,7.85,4.43,12.23,1.83,4.73-2.81,6.4-7.58,6.29-12.79C1037.62,408.88,1029.9,403.68,1021,408Z" transform="translate(-912.06 -336.85)"/>
    <path id="boca" d="M1021.32,436.79c-11.67-.7-20.66,8.39-20.77,21-.09,11.47,7.58,20.6,17.28,21.5,12.22,1.12,21.82-9.87,20.79-23C1037.78,445.61,1030.22,437.33,1021.32,436.79Z" transform="translate(-912.06 -336.85)"/>
    <path id="olhoee" d="M1009.31,407.15c-3.91-.15-7.28,4.42-7.5,10.21-.25,6.16,3,11.44,7.06,11.65s6.73-3.86,7-10.75C1016.21,411.9,1013.48,407.32,1009.31,407.15Z" transform="translate(-912.06 -336.85)" style="fill: #fff"/>
    <path id="dente" d="M1021.37,440.47c-3.28.15-6.57.5-6.23,5.52.23,3.31.54,5.11,4.56,5.08s4.92-1.76,4.22-6C1023.51,443.92,1025.74,440.28,1021.37,440.47Z" transform="translate(-912.06 -336.85)" />
    <path id="olhode" d="M1026.77,410.77c-3.61,0-6.61,4-6.64,9s3,9.18,6.47,9.25,6.54-4.12,6.57-9.08C1033.2,414.83,1030.4,410.83,1026.77,410.77Z" transform="translate(-912.06 -336.85)" style="fill: #fff"/>
    <path id="olhoe" d="M1009.05,414.73c-2.41,0-3.62,1.67-3.64,3.91s1,3.93,3.51,3.94,3.35-1.75,3.93-3.9C1012.24,416.75,1011.46,414.77,1009.05,414.73Z" transform="translate(-912.06 -336.85)"/>
    <path id="olhod" d="M1026,415.93a3.5,3.5,0,0,0-3.59,3.9c0,2.17,1.33,3.88,3.68,3.87s3.37-1.74,3.6-4C1029.35,417.55,1028.44,415.86,1026,415.93Z" transform="translate(-912.06 -336.85)"/>
  </g>
</svg>