<svg xmlns="http://www.w3.org/2000/svg" viewBox="0 0 142.19 193.65"><title>fredAtivo 4</title><g id="Camada_2" data-name="Camada 2"><g id="Camada_1-2" data-name="Camada 1"><g id="Camada_1-2-2" data-name="Camada 1-2"><path d="M75.37,0c1,0-.71,2.19-1,3-.54,1.49-.45,3.41.54,3.64,6.67,1.56,11.3,6.08,15.4,11.18a58.06,58.06,0,0,1,10,18.68,71.52,71.52,0,0,1,2.29,7c2.62,12-5,23-15.27,27.52-.92.41-2,.58-2.68,1.75a35,35,0,0,1,8.95,5.74c1.32,1.2,2.62.81,4.17-.06,10.49-5.85,21-11.65,31.62-17.3,3-1.18.4-.46,4-1.18,5-1,11,8,8,13,0,0,.2.63-2.72,2.29-7.83,4.43-15.69,8.79-23.64,13-2.68,1.41-5.09,3.31-8,4.36-2.07.76-.94,2.29-.35,3.37,5.21,9.6,5.54,20,5,30.52-.11,2.25-1.86,5.06-.22,6.58,1.44,1.34,4.32,1.14,6.57,1.6,6.09,1.25,6.21,2.15,3.65,9.13-1.34,3.65-2.82,7.26-4.47,10.77a12,12,0,0,1-3.07,4.33c-2.11,1.75-1.61,3.61.07,5.58A158.3,158.3,0,0,1,126,180.23c1.94,2.93,1.67,6-.16,8.9-2.28,3.61-5.84,4.48-9.79,4.52-4.9,0-6.91-4-9.35-7-2.78-3.49-5.11-7.34-7.93-10.84-1-1.21-1.57-1.45-3-.75-16.77,7.94-33.4,7.6-49.94-.67-.19-.09-.35-.23-.54-.33-5.4-3-5.22-2.81-10,1.08-3.61,3-6.6,6.73-10.92,8.79-6.2,2.94-14.43-2.13-14.31-8.78a6.9,6.9,0,0,1,2.57-5.38q6.74-6.09,13.81-11.76c1.05-.84.67-1.59.12-2.43-7.43-11.57-8.09-24.1-5.26-37.14.38-1.74,1.29-2.41,2.87-1.86,2.59.91,2.94-.35,3.09-2.55A57,57,0,0,1,31.6,96c.12-.29.26-.57.38-.86.63-1.5,2.92-2.65,2.17-4.17-.6-1.22-2.7-1.73-4.16-2.5Q17.5,82,5,75.46a28.36,28.36,0,0,1-3.52-2.09C-.4,72.06,0,70.63.14,68.19c.23-3.36,3.23-10.19,10.53-9,6,3.14,12,6.25,18,9.41,5.18,2.73,10.36,5.47,15.48,8.32a2.64,2.64,0,0,0,3.19-.16c2.94-2.42,6.43-3.83,10.42-5.52-4-2.68-7.36-5-10.17-8.24-4-4.66-5.21-9.91-5-15.68C43,37.19,47,28.16,52.16,19.79c2.5-4,5.38-8.25,10-10.54.94-.46,4.21-1.92,5.21-2.25,3-1,3-1.52,3.62-3C72.08,1.28,74.37,0,75.37,0ZM71.45,142.52H27c-3.55,0-3.44-.07-2.47,3.51.67,2.47,2.57,4.24,3.32,6.64s1.54,2.64,3.58.79c6.55-5.92,13.06-4.75,17.78,3,.66,1.08,1.49,1,2.36,1.08q8.14.79,16.31,1.52l37.63,3.39c1.48.14,2.88.3,3.9-1.24,3.18-4.75,6.79-9.2,8.62-14.78.83-2.52.28-3-2.2-3m-.5-2.78c1.52,0,4,1.31,4.36-1.48.39-3.15-2.67-2.15-4.1-2.44-19.3-3.89-38.63-7.59-58-11.33-10.58-2-21.18-4-31.75-6.15-1.72-.34-2.38,0-2.7,1.78a53.35,53.35,0,0,0-.62,16c.26,2.12.94,2.76,3.08,2.75m79.2,25.39c-10.43-.94-20.33-1.84-30.23-2.72q-11.13-1-22.25-1.93c-.89-.07-2.33-.62-2.57.42-1,4-5.13,5.07-7.11,8.08,18.36,14.13,47.45,11.21,62.24-3.85Z" style="fill:#fcd4ae"/><path d="M75.37,0c1,0-.71,2.19-1,3-.54,1.49-.45,3.41.54,3.64,6.67,1.56,11.3,6.08,15.4,11.18a58.06,58.06,0,0,1,10,18.68,71.52,71.52,0,0,1,2.29,7c2.62,12-5,23-15.27,27.52-.92.41-2,.58-2.68,1.75a35,35,0,0,1,8.95,5.74c1.32,1.2,2.62.81,4.17-.06,10.49-5.85,21-11.65,31.62-17.3,3-1.18.4-.46,4-1.18,5-1,11,8,8,13,0,0,.2.63-2.72,2.29-7.83,4.43-15.69,8.79-23.64,13-2.68,1.41-5.09,3.31-8,4.36-2.07.76-.94,2.29-.35,3.37,5.21,9.6,5.54,20,5,30.52-.11,2.25-1.86,5.06-.22,6.58,1.44,1.34,4.32,1.14,6.57,1.6,6.09,1.25,6.21,2.15,3.65,9.13-1.34,3.65-2.82,7.26-4.47,10.77a12,12,0,0,1-3.07,4.33c-2.11,1.75-1.61,3.61.07,5.58A158.3,158.3,0,0,1,126,180.23c1.94,2.93,1.67,6-.16,8.9-2.28,3.61-5.84,4.48-9.79,4.52-4.9,0-6.91-4-9.35-7-2.78-3.49-5.11-7.34-7.93-10.84-1-1.21-1.57-1.45-3-.75-16.77,7.94-33.4,7.6-49.94-.67-.19-.09-.35-.23-.54-.33-5.4-3-5.22-2.81-10,1.08-3.61,3-6.6,6.73-10.92,8.79-6.2,2.94-14.43-2.13-14.31-8.78a6.9,6.9,0,0,1,2.57-5.38q6.74-6.09,13.81-11.76c1.05-.84.67-1.59.12-2.43-7.43-11.57-8.09-24.1-5.26-37.14.38-1.74,1.29-2.41,2.87-1.86,2.59.91,2.94-.35,3.09-2.55A57,57,0,0,1,31.6,96c.12-.29.26-.57.38-.86.63-1.5,2.92-2.65,2.17-4.17-.6-1.22-2.7-1.73-4.16-2.5Q17.5,82,5,75.46a28.36,28.36,0,0,1-3.52-2.09C-.4,72.06,0,70.63.14,68.19c.23-3.36,3.23-10.19,10.53-9,6,3.14,12,6.25,18,9.41,5.18,2.73,10.36,5.47,15.48,8.32a2.64,2.64,0,0,0,3.19-.16c2.94-2.42,6.43-3.83,10.42-5.52-4-2.68-7.36-5-10.17-8.24-4-4.66-5.21-9.91-5-15.68C43,37.19,47,28.16,52.16,19.79c2.5-4,5.38-8.25,10-10.54.94-.46,4.21-1.92,5.21-2.25,3-1,3-1.52,3.62-3C72.08,1.28,74.37,0,75.37,0ZM72,9.31C65.76,9,61.67,12.62,58.31,16.75A49.52,49.52,0,0,0,48,37a36.33,36.33,0,0,1-1.23,3.83c-1.62,4.53-2.13,9.39-.32,13.85A24.66,24.66,0,0,0,62,69.5c1,.32,2.22.7,2.21,1.94,0,1.49-1.43,1.6-2.54,1.87A32.16,32.16,0,0,0,48.54,79.7a3.67,3.67,0,0,1-4.61.41c-5.32-2.93-10.67-5.78-16-8.61C22,68.38,16,65.34,10.1,62.23c.27-.23-1.73-.23-2.66.31a7.26,7.26,0,0,0-3.68,5c-.7,3-.72,3.54,1.56,4.71C15.46,77.45,25.52,82.81,35.65,88c2.48,1.28,2.52,2.63,1.32,5-3.33,6.62-6.29,13.37-6.89,21-.22,2.86.42,3.72,3.12,4.23q35.52,6.69,71,13.62c3.13.61,3.76.09,4.3-3.11,1.94-11.59-.72-22.47-5.25-33-1.19-2.77-.74-4.09,1.8-5.44,8.67-4.62,17.32-9.28,25.84-14.18,2.39-1.37,7.94-3.47,8.49-6.13s-1-5-4-6c-1.38-.46-3.44-1-4.75-.24-4.09,2.33-8.25,4.52-12.36,6.79-7.14,3.93-14.29,7.85-21.4,11.84a3,3,0,0,1-4-.39,33,33,0,0,0-13.36-7.93c-.89-.28-1.86-.76-1.74-1.93a1.85,1.85,0,0,1,1.79-1.53,22.36,22.36,0,0,0,7.61-2.86c8.68-4.5,13.39-12.08,12.07-22a53.76,53.76,0,0,0-7.55-20.4A48,48,0,0,0,82.2,13.77C79.36,11.25,76,9,72,9.31ZM71.5,142.52H27c-3.55,0-3.44-.07-2.47,3.51.67,2.47,2.57,4.24,3.32,6.64s1.54,2.64,3.58.79c6.55-5.92,13.06-4.75,17.78,3,.66,1.08,1.49,1,2.36,1.08q8.14.79,16.31,1.52l37.63,3.39c1.48.14,2.88.3,3.9-1.24,3.18-4.75,6.79-9.2,8.62-14.78.83-2.52.28-3-2.2-3m-.5-2.78c1.52,0,4,1.31,4.36-1.48.39-3.15-2.67-2.15-4.1-2.44-19.3-3.89-38.63-7.59-58-11.33-10.58-2-21.18-4-31.75-6.15-1.72-.34-2.38,0-2.7,1.78a53.35,53.35,0,0,0-.62,16c.26,2.12.94,2.76,3.08,2.75m79.2,25.39c-10.43-.94-20.33-1.84-30.23-2.72q-11.13-1-22.25-1.93c-.89-.07-2.33-.62-2.57.42-1,4-5.13,5.07-7.11,8.08,18.36,14.13,47.45,11.21,62.24-3.85Zm-84.7,16.66a4.54,4.54,0,0,0,3.54-1c6.92-5.85,13.86-11.66,20.66-17.64,2.53-2.22,2.46-5.56.29-8.13s-6.12-3.38-8.71-1.24c-6.72,5.59-13.34,11.3-20,17-2,1.7-3,3.71-1.95,6.39A6.76,6.76,0,0,0,20.09,181.88Zm97,8.93c2.18-.36,4.82-1,6.38-3.55,1.36-2.2.94-4.4-.59-6.43-3.81-5-7.65-10.07-11.38-15.17-.89-1.22-1.32-1-2.34-.14-2.57,2.28-5.27,4.4-8,6.51-.6.46-.9.6-.33,1.36q5.69,7.61,11.28,15.3c1.16,1.51,2.74,1.89,5,2.12Z"/><path d="M73.2,118.78c-.31,1.93-1.37,3.45-3.41,3.33s-4.09-.82-4.1-3.37,2.19-3.25,4.09-3.37S72.93,116.72,73.2,118.78Z"/><path d="M69.67,43.52c2-2.53,1.7-5,1.7-8.21a9.79,9.79,0,0,0-.85-3.65c-.92-2.7-1.83-3-3.74-3.42-3.85-.87-8.71,3.84-8.4,9a8.65,8.65,0,0,0,4.42,8C65.23,46.76,67.8,45.92,69.67,43.52Z"/><path d="M81.1,28.5A5,5,0,0,0,77,29.68,17.53,17.53,0,0,0,74.37,39a13.41,13.41,0,0,0,1.88,5.26c2.32,2,4.81,2.11,7,.32,2.75-2.23,3.54-5.67,2.88-9.49C85.57,31.77,84.14,29.36,81.1,28.5Z"/><path d="M73.37,58c-9.08,0-16.09-7-16-10s5.38,3,14.16,3,17.89-6.85,17.84-4S82.37,58,73.37,58Z"/><path d="M75.27,53.35c-.1-.53.85-1.36-1.69-1.26-1.73.06-3.58.07-3.4,1.33.11.81.38,1.19,2.38,1.17S75.74,54.41,75.27,53.35Z" style="fill:#fff"/><path d="M70.25,36.88c.18-3.92-1.59-6.65-4.42-6.78s-4.94,2.52-5.11,6.36v.94c.13,3.82,2.23,6.55,5,6.5s4.33-2.3,4.5-6.39C70.22,37.3,70.24,37.09,70.25,36.88Z" style="fill:#fff"/><path d="M85.37,36.92c0-4.15-2-6.82-5.06-6.92-2.62-.08-4.74,2.94-4.8,6.82S77.51,43.9,80,44C83.18,44.12,85.38,41.2,85.37,36.92Z" style="fill:#fff"/><path d="M66.34,36.59a2.43,2.43,0,0,1,2.29,2.56s0,.08,0,.12a2.35,2.35,0,0,1-2.33,2.35,2,2,0,0,1-.43,0A2.27,2.27,0,0,1,63.4,39.5a2.09,2.09,0,0,1,0-.5C63.46,37.27,64.69,36.77,66.34,36.59Z"/><path d="M81.84,39.41c-.19,1.45-.86,2.52-2.37,2.45a2.29,2.29,0,0,1-2.24-2.34c0-.07,0-.14,0-.21A2.19,2.19,0,0,1,79.33,37h.29C81.19,37,81.7,38.09,81.84,39.41Z"/></g></g></g></svg>